<?xml version="1.0" standalone="no"?>
<!DOCTYPE svg PUBLIC "-//W3C//DTD SVG 20010904//EN"
 "http://www.w3.org/TR/2001/REC-SVG-20010904/DTD/svg10.dtd">
<svg version="1.0" xmlns="http://www.w3.org/2000/svg"
 width="134.000000pt" height="134.000000pt" viewBox="0 0 134.000000 134.000000"
 preserveAspectRatio="xMidYMid meet">
<metadata>
Created by potrace 1.14, written by Peter Selinger 2001-2017
</metadata>
<g transform="translate(0.000000,134.000000) scale(0.100000,-0.100000)"
fill="#000000" stroke="none">
<path d="M1004 1245 c-87 -36 -135 -147 -136 -315 -1 -127 28 -212 97 -288
l33 -38 -19 -39 c-10 -22 -18 -45 -19 -50 0 -23 -104 -191 -133 -218 -32 -28
-39 -31 -72 -27 -33 3 -54 30 -72 89 -15 46 -18 100 -18 306 0 138 4 282 8
320 23 205 20 236 -23 250 -11 4 -36 1 -55 -5 -44 -14 -57 -51 -85 -230 -48
-307 -131 -581 -209 -688 -62 -84 -112 -39 -135 122 -12 83 -14 353 -2 461 3
33 8 89 11 125 3 36 7 81 10 100 8 51 -7 93 -38 108 -49 24 -102 -9 -112 -69
-22 -148 -30 -259 -29 -469 0 -221 5 -281 34 -395 32 -127 80 -197 143 -209
116 -23 227 102 313 354 25 71 33 87 34 65 13 -223 67 -378 145 -411 48 -20
74 -18 133 12 92 46 197 184 278 368 27 61 35 71 55 69 153 -13 164 -12 184
28 36 68 12 100 -80 105 -38 2 -71 6 -73 9 -3 3 3 40 12 82 65 292 24 482
-106 489 -24 1 -57 -4 -74 -11z m71 -176 c17 -54 -9 -284 -36 -313 -15 -16
-59 97 -62 160 -6 116 30 207 73 184 10 -5 22 -19 25 -31z"/>
</g>
</svg>
